<?xml version="1.0" encoding="UTF-8" standalone="no"?>
<!-- Created with Inkscape (http://www.inkscape.org/) -->

<svg
   xmlns:dc="http://purl.org/dc/elements/1.1/"
   xmlns:cc="http://creativecommons.org/ns#"
   xmlns:rdf="http://www.w3.org/1999/02/22-rdf-syntax-ns#"
   xmlns:svg="http://www.w3.org/2000/svg"
   xmlns="http://www.w3.org/2000/svg"
   xmlns:sodipodi="http://sodipodi.sourceforge.net/DTD/sodipodi-0.dtd"
   xmlns:inkscape="http://www.inkscape.org/namespaces/inkscape"
   width="210mm"
   height="210mm"
   viewBox="0 0 210 210"
   version="1.1"
   id="svg8"
   inkscape:version="0.92.5 (2060ec1f9f, 2020-04-08)"
   sodipodi:docname="archive.svg">
  <defs
     id="defs2" />
  <sodipodi:namedview
     id="base"
     pagecolor="#ffffff"
     bordercolor="#666666"
     borderopacity="1.0"
     inkscape:pageopacity="0.0"
     inkscape:pageshadow="2"
     inkscape:zoom="0.7"
     inkscape:cx="103.73123"
     inkscape:cy="507.17371"
     inkscape:document-units="mm"
     inkscape:current-layer="layer1"
     showgrid="false"
     inkscape:window-width="1848"
     inkscape:window-height="1136"
     inkscape:window-x="72"
     inkscape:window-y="27"
     inkscape:window-maximized="1" />
  <metadata
     id="metadata5">
    <rdf:RDF>
      <cc:Work
         rdf:about="">
        <dc:format>image/svg+xml</dc:format>
        <dc:type
           rdf:resource="http://purl.org/dc/dcmitype/StillImage" />
        <dc:title></dc:title>
      </cc:Work>
    </rdf:RDF>
  </metadata>
  <g
     inkscape:label="Layer 1"
     inkscape:groupmode="layer"
     id="layer1"
     transform="translate(0,-87)">
    <path
       style="fill:none;stroke:#000000;stroke-width:0.26458332px;stroke-linecap:butt;stroke-linejoin:miter;stroke-opacity:1"
       d="m 28.33057,124.94524 -0.133636,48.0417 -13.964832,-0.0668 0.06682,-81.984931 3.407686,-3.207235 9.287617,-0.534539 43.8322,0.26727 2.939965,2.53906 3.875408,5.61266 5.345393,8.953525 110.649579,0.60136 2.73951,2.6727 0.46772,5.21175 0.0668,59.93519 -14.29892,-0.20045 -0.0668,-47.64079 z"
       id="path826"
       inkscape:connector-curvature="0" />
    <path
       style="fill:none;stroke:#000000;stroke-width:0.26458332px;stroke-linecap:butt;stroke-linejoin:miter;stroke-opacity:1"
       d="m 41.894498,141.91686 -0.133634,-9.95579 126.752576,-0.0668 -0.13364,10.22306 z"
       id="path828"
       inkscape:connector-curvature="0" />
    <path
       style="fill:none;stroke:#000000;stroke-width:0.26458332px;stroke-linecap:butt;stroke-linejoin:miter;stroke-opacity:1"
       d="m 38.419995,145.45818 0.06682,10.62397 133.233855,-0.13364 0.0668,-10.28988 z"
       id="path830"
       inkscape:connector-curvature="0" />
    <path
       style="fill:none;stroke:#000000;stroke-width:0.26458332px;stroke-linecap:butt;stroke-linejoin:miter;stroke-opacity:1"
       d="m 34.67822,159.22256 0.06682,13.69757 140.78422,-0.0668 -0.13363,-13.76438 z"
       id="path832"
       inkscape:connector-curvature="0" />
    <path
       style="fill:none;stroke:#000000;stroke-width:0.26458332px;stroke-linecap:butt;stroke-linejoin:miter;stroke-opacity:1"
       d="m 9.9557897,180.06959 -7.4835466,0.20045 -1.60361714,1.46998 -0.66817382,1.20271 -0.0668174,1.40317 0.46772166,4.34313 16.9716146,101.16151 0.534539,1.87089 1.403165,1.26953 167.177085,-0.13364 3.94223,-0.33408 1.13589,-0.26727 0.73499,-2.6727 17.23889,-102.96558 0.26727,-3.27405 -0.20045,-0.73499 -1.20272,-1.60362 -1.20271,-0.80181 z"
       id="path834"
       inkscape:connector-curvature="0" />
    <path
       style="opacity:1;fill:#83c9f2;fill-opacity:1;fill-rule:nonzero;stroke:#000000;stroke-width:1.43082106;stroke-miterlimit:4;stroke-dasharray:none;stroke-opacity:1"
       d="M 70.410934,773.6748 C 68.950366,771.44568 56.79071,702.28455 35.561631,575.46051 17.628333,468.32569 2.5242559,376.6928 1.9970165,371.83184 1.0857002,363.42984 1.247079,362.76019 5.2675713,358.26041 l 4.229172,-4.73333 387.0780467,-0.36997 387.07806,-0.36997 4.46775,4.56974 c 2.94356,3.01073 4.46777,5.99442 4.46777,8.74575 0,5.8396 -65.37882,396.13228 -67.5307,403.13874 -1.67587,5.4566 -2.07711,5.75695 -8.89787,6.66055 -3.92857,0.52046 -150.32447,1.0026 -325.32421,1.07143 l -318.18135,0.12516 z"
       id="path836"
       inkscape:connector-curvature="0"
       transform="matrix(0.26458333,0,0,0.26458333,0,87)" />
    <path
       style="opacity:1;fill:#83c9f2;fill-opacity:1;fill-rule:nonzero;stroke:#000000;stroke-width:1.43082106;stroke-miterlimit:4;stroke-dasharray:none;stroke-opacity:1"
       d="m 132.58837,299.47443 v -25.23306 h 264.0822 264.08222 l 0.91778,8.78098 c 0.50479,4.82955 0.9178,15.75812 0.9178,24.28572 V 322.8128 H 464.25159 c -109.08524,0 -228.33524,0.4263 -265,0.94734 l -66.66322,0.94735 z"
       id="path838"
       inkscape:connector-curvature="0"
       transform="matrix(0.26458333,0,0,0.26458333,0,87)" />
    <path
       style="opacity:1;fill:#83c9f2;fill-opacity:1;fill-rule:nonzero;stroke:#000000;stroke-width:1.43082106;stroke-miterlimit:4;stroke-dasharray:none;stroke-opacity:1"
       d="M 146.87409,241.38422 V 222.8128 h 250.71428 250.71429 v 18.57142 18.57143 H 397.58837 146.87409 Z"
       id="path840"
       inkscape:connector-curvature="0"
       transform="matrix(0.26458333,0,0,0.26458333,0,87)" />
    <path
       style="opacity:1;fill:#83c9f2;fill-opacity:1;fill-rule:nonzero;stroke:#000000;stroke-width:1.43082106;stroke-miterlimit:4;stroke-dasharray:none;stroke-opacity:1"
       d="m 159.73123,189.24137 v -17.85715 h 237.85714 237.85715 v 17.85715 17.85714 H 397.58837 159.73123 Z"
       id="path842"
       inkscape:connector-curvature="0"
       transform="matrix(0.26458333,0,0,0.26458333,0,87)" />
    <path
       style="opacity:1;fill:#83c9f2;fill-opacity:1;fill-rule:nonzero;stroke:#000000;stroke-width:1.43082106;stroke-miterlimit:4;stroke-dasharray:none;stroke-opacity:1"
       d="M 55.445517,169.33701 V 14.432652 l 6.3848,-5.2318633 C 68.135647,4.0340444 68.424586,3.9557145 85.044603,2.9075081 94.30082,2.3237284 139.19949,2.1493707 184.81944,2.5200464 l 82.94535,0.6739558 5.21674,4.7807919 c 6.28643,5.7610879 17.24416,21.3790479 30.08977,42.8867199 l 9.49989,15.905862 47.5086,0.844808 c 26.12971,0.464645 120.4643,1.184152 209.6324,1.598906 l 162.12381,0.754096 5.01905,5.018384 5.01904,5.018383 0.41048,122.340067 0.41048,122.34006 -15.27558,-0.93464 c -8.40155,-0.51406 -19.99698,-0.93464 -25.76761,-0.93464 H 691.1598 v -90 -90 H 398.30266 105.44552 v 90.71428 90.71429 h -25.000003 -25 z"
       id="path844"
       inkscape:connector-curvature="0"
       transform="matrix(0.26458333,0,0,0.26458333,0,87)" />
  </g>
</svg>
