<?xml version="1.0" encoding="UTF-8" standalone="no"?>
<!-- Created with Inkscape (http://www.inkscape.org/) -->

<svg
   xmlns:dc="http://purl.org/dc/elements/1.1/"
   xmlns:cc="http://creativecommons.org/ns#"
   xmlns:rdf="http://www.w3.org/1999/02/22-rdf-syntax-ns#"
   xmlns:svg="http://www.w3.org/2000/svg"
   xmlns="http://www.w3.org/2000/svg"
   xmlns:sodipodi="http://sodipodi.sourceforge.net/DTD/sodipodi-0.dtd"
   xmlns:inkscape="http://www.inkscape.org/namespaces/inkscape"
   width="210mm"
   height="210mm"
   viewBox="0 0 210 210"
   version="1.1"
   id="svg8"
   inkscape:version="0.92.5 (2060ec1f9f, 2020-04-08)"
   sodipodi:docname="hideAll.svg">
  <defs
     id="defs2">
    <inkscape:path-effect
       effect="spiro"
       id="path-effect868"
       is_visible="true" />
    <inkscape:path-effect
       effect="spiro"
       id="path-effect864"
       is_visible="true" />
    <inkscape:path-effect
       effect="spiro"
       id="path-effect860"
       is_visible="true" />
    <inkscape:path-effect
       effect="spiro"
       id="path-effect856"
       is_visible="true" />
    <inkscape:path-effect
       effect="spiro"
       id="path-effect852"
       is_visible="true" />
    <inkscape:path-effect
       effect="spiro"
       id="path-effect848"
       is_visible="true" />
  </defs>
  <sodipodi:namedview
     id="base"
     pagecolor="#ffffff"
     bordercolor="#666666"
     borderopacity="1.0"
     inkscape:pageopacity="0.0"
     inkscape:pageshadow="2"
     inkscape:zoom="0.35"
     inkscape:cx="594.09637"
     inkscape:cy="596.76839"
     inkscape:document-units="mm"
     inkscape:current-layer="layer1"
     showgrid="false"
     inkscape:window-width="1848"
     inkscape:window-height="1136"
     inkscape:window-x="72"
     inkscape:window-y="27"
     inkscape:window-maximized="1" />
  <metadata
     id="metadata5">
    <rdf:RDF>
      <cc:Work
         rdf:about="">
        <dc:format>image/svg+xml</dc:format>
        <dc:type
           rdf:resource="http://purl.org/dc/dcmitype/StillImage" />
        <dc:title></dc:title>
      </cc:Work>
    </rdf:RDF>
  </metadata>
  <g
     inkscape:label="Layer 1"
     inkscape:groupmode="layer"
     id="layer1"
     transform="translate(0,-87)">
    <path
       style="fill:none;stroke:#000000;stroke-width:0.26458332px;stroke-linecap:butt;stroke-linejoin:miter;stroke-opacity:1"
       d="m 90.604368,165.5034 c 4.107654,-2.09447 8.75606,-3.11712 13.363472,-2.93997 4.85394,0.18663 9.67701,1.72161 13.63075,4.54358 4.7248,3.37231 8.14124,8.66753 8.81989,14.43256 0.61725,5.24342 -0.9687,10.49023 -1.06907,15.7689 -0.0461,2.42659 0.22413,4.85901 0.80181,7.21628"
       id="path846"
       inkscape:connector-curvature="0"
       inkscape:path-effect="#path-effect848"
       inkscape:original-d="m 90.604368,165.5034 c 4.454758,-0.89117 8.909248,-1.96024 13.363472,-2.93997 4.45423,-0.97972 9.08743,3.02879 13.63075,4.54358 4.54332,1.5148 5.8802,9.62144 8.81989,14.43256 2.9397,4.81111 -0.71245,10.51233 -1.06907,15.7689 -0.35663,5.25656 0.5348,4.81059 0.80181,7.21628" />
    <path
       style="fill:none;stroke:#000000;stroke-width:0.26458332px;stroke-linecap:butt;stroke-linejoin:miter;stroke-opacity:1"
       d="m 83.38809,158.01985 c 6.134477,-2.3862 12.666399,-3.74701 19.24341,-4.00904 8.63415,-0.34398 17.31206,1.20972 25.3906,4.27631 4.02352,1.52732 7.93721,3.44664 11.31066,6.11895 3.37345,2.67231 6.19596,6.1395 7.66548,10.18449 1.96687,5.414 1.39921,11.3761 0.80181,17.10525 -0.47946,4.59807 -0.96967,9.23634 -2.40543,13.63074 -1.27049,3.88855 -3.27629,7.53547 -5.87993,10.69079"
       id="path850"
       inkscape:connector-curvature="0"
       inkscape:path-effect="#path-effect852"
       inkscape:original-d="m 83.38809,158.01985 c 6.236555,-1.4257 12.829204,-2.67296 19.24341,-4.00904 6.4142,-1.33609 16.92733,2.85061 25.3906,4.27631 8.46327,1.4257 12.65103,10.86869 18.97614,16.30344 6.32511,5.43475 0.5348,11.40323 0.80181,17.10525 0.267,5.70201 -1.60336,9.0869 -2.40543,13.63074 -0.80207,4.54385 -3.91969,7.12693 -5.87993,10.69079" />
    <path
       style="fill:none;stroke:#000000;stroke-width:0.26458332px;stroke-linecap:butt;stroke-linejoin:miter;stroke-opacity:1"
       d="m 60.670183,175.65964 c -1.569634,4.64006 -2.385331,9.53423 -2.405428,14.43255 -0.03139,7.65067 1.961425,15.42756 6.414471,21.64883 2.998255,4.18881 7.032299,7.57915 11.49259,10.15625 4.728868,2.73228 9.931623,4.57283 15.234361,5.87993 10.369793,2.5561 21.230763,3.10371 31.805073,1.60361"
       id="path854"
       inkscape:connector-curvature="0"
       inkscape:path-effect="#path-effect856"
       inkscape:original-d="m 60.670183,175.65964 c -0.801545,4.81059 -1.603354,9.62144 -2.405428,14.43255 -0.802071,4.81112 4.276579,14.43229 6.414471,21.64883 2.137891,7.21655 7.661989,6.77057 11.49259,10.15625 3.830597,3.38568 10.156504,3.91968 15.234361,5.87993 5.077857,1.96024 21.203643,1.06881 31.805073,1.60361" />
    <path
       style="fill:none;stroke:#000000;stroke-width:0.26458332px;stroke-linecap:butt;stroke-linejoin:miter;stroke-opacity:1"
       d="m 125.34941,245.14971 c -15.6369,3.9447 -32.296389,3.75856 -47.841247,-0.53453 C 65.321214,241.24946 53.917846,235.43914 43.297662,228.579 28.819355,219.22669 15.645747,207.85769 4.2763125,194.90304"
       id="path858"
       inkscape:connector-curvature="0"
       inkscape:path-effect="#path-effect860"
       inkscape:original-d="M 125.34941,245.14971 C 109.40259,244.97127 93.455507,244.79309 77.508163,244.61518 61.560815,244.43726 54.701426,233.92413 43.297662,228.579 31.893899,223.23388 17.283694,206.1281 4.2763125,194.90304" />
    <path
       style="fill:none;stroke:#000000;stroke-width:0.26458332px;stroke-linecap:butt;stroke-linejoin:miter;stroke-opacity:1"
       d="m 44.36674,154.81261 c -7.752816,6.70483 -16.184121,12.62468 -25.123334,17.63979 -3.329532,1.86795 -6.755913,3.62858 -9.6920575,6.06868 -2.9361443,2.44009 -5.3906296,5.67742 -6.0768447,9.43296 -0.4252774,2.32747 -0.1423467,4.77954 0.8018087,6.949"
       id="path862"
       inkscape:connector-curvature="0"
       inkscape:path-effect="#path-effect864"
       inkscape:original-d="m 44.36674,154.81261 c -8.196,5.70149 -16.748624,11.7596 -25.123334,17.63979 -8.37471,5.8802 -10.5123371,10.33416 -15.7689022,15.50164 -5.2565652,5.16747 0.5348036,4.6324 0.8018087,6.949" />
    <path
       style="fill:none;stroke:#000000;stroke-width:0.26458332px;stroke-linecap:butt;stroke-linejoin:miter;stroke-opacity:1"
       d="m 156.35267,233.12259 c 0.44855,-0.17029 0.8941,-0.3485 1.33635,-0.53454 10.58224,-4.45149 18.73327,-13.08839 28.0633,-19.77795 3.59521,-2.57774 7.39394,-4.8839 10.78875,-7.72036 3.39481,-2.83647 6.42082,-6.29196 7.92012,-10.45397 0.61572,-1.70922 0.9628,-3.57985 0.53453,-5.34539 -0.47713,-1.96699 -1.84881,-3.57766 -3.20723,-5.07812 -18.73709,-20.69629 -43.34365,-35.88116 -70.02462,-44.09947 -11.33604,-3.49174 -23.15816,-5.76639 -35.012303,-5.34539 -10.412633,0.36981 -20.746377,2.83893 -30.201456,7.21628"
       id="path866"
       inkscape:connector-curvature="0"
       inkscape:path-effect="#path-effect868"
       inkscape:original-d="m 156.35267,233.12259 c 0.44572,-0.17845 0.89116,-0.35663 1.33635,-0.53454 0.44518,-0.17792 18.70913,-13.18556 28.0633,-19.77795 9.35417,-6.59238 12.47284,-12.11648 18.70887,-18.17433 6.23602,-6.05784 0.35662,-3.56385 0.53453,-5.34539 0.17792,-1.78153 -2.13789,-3.38568 -3.20723,-5.07812 -1.06934,-1.69244 -46.68281,-29.39991 -70.02462,-44.09947 -23.3418,-14.69956 -23.34127,-3.56386 -35.012303,-5.34539 -11.671032,-1.78153 -20.13404,4.81059 -30.201456,7.21628" />
    <path
       style="fill:none;stroke:#000000;stroke-width:0.26458332px;stroke-linecap:butt;stroke-linejoin:miter;stroke-opacity:1"
       d="m 44.36674,154.81261 16.303443,20.84703"
       id="path870"
       inkscape:connector-curvature="0" />
    <path
       style="fill:none;stroke:#000000;stroke-width:0.26458332px;stroke-linecap:butt;stroke-linejoin:miter;stroke-opacity:1"
       d="m 123.21125,229.38081 7.48355,12.2944 -5.34539,3.4745"
       id="path872"
       inkscape:connector-curvature="0" />
    <path
       style="fill:none;stroke:#000000;stroke-width:0.26458332px;stroke-linecap:butt;stroke-linejoin:miter;stroke-opacity:1"
       d="m 156.35267,233.12259 40.62497,39.28862 -10.95805,10.95805 -175.596079,-173.72519 11.22532,-12.294403 44.90128,44.634013"
       id="path874"
       inkscape:connector-curvature="0" />
    <path
       style="fill:none;stroke:#000000;stroke-width:0.26458332px;stroke-linecap:butt;stroke-linejoin:miter;stroke-opacity:1"
       d="m 90.604368,165.5034 -7.21628,-7.48355"
       id="path876"
       inkscape:connector-curvature="0" />
    <path
       style="fill:none;stroke:#000000;stroke-width:0.26458332px;stroke-linecap:butt;stroke-linejoin:miter;stroke-opacity:1"
       d="m 126.15122,204.52475 13.36347,11.49259"
       id="path878"
       inkscape:connector-curvature="0" />
    <path
       style="fill:none;stroke:#000000;stroke-width:0.29633862px;stroke-linecap:butt;stroke-linejoin:miter;stroke-opacity:1"
       d="m 162.21027,173.6906 0.89041,18.11514 -1.7808,19.92665 25.22778,-19.0209 z"
       id="path880"
       inkscape:connector-curvature="0" />
    <path
       style="fill:none;stroke:#000000;stroke-width:0.26458332px;stroke-linecap:butt;stroke-linejoin:miter;stroke-opacity:1"
       d="M 46.237628,208.53379 22.985179,191.96308 44.901281,174.05602 Z"
       id="path882"
       inkscape:connector-curvature="0" />
    <path
       style="opacity:1;fill:#83c9f2;fill-opacity:1;fill-rule:nonzero;stroke:#000000;stroke-width:1.01174331;stroke-miterlimit:4;stroke-dasharray:none;stroke-opacity:1"
       d="M 371.92888,413.13774 C 190.21808,233.35594 41.54562,85.918391 41.54562,85.498731 c 0,-0.587469 31.470133,-35.676264 38.996625,-43.480737 1.262157,-1.308774 8.726059,5.756517 59.762195,56.570581 32.07595,31.936375 70.20321,69.831645 84.72727,84.211705 l 26.40737,26.14557 9.95812,-4.29653 c 21.47319,-9.26482 46.5965,-16.21229 74.09013,-20.4885 11.14342,-1.73319 18.47223,-2.13525 39.91371,-2.18969 38.55553,-0.0979 64.39991,3.62929 107.58124,15.51492 97.2628,26.77153 188.94952,80.02137 260.16174,151.09678 17.94898,17.9145 27.86853,29.72164 29.86606,35.54925 5.02064,14.64725 -4.62467,36.38019 -24.61111,55.45408 -5.94217,5.67088 -17.84018,14.88153 -32.17396,24.90697 -12.50969,8.74963 -31.04627,22.61397 -41.1924,30.80965 -39.44517,31.86242 -58.46076,44.95056 -76.45399,52.62207 -4.68609,1.99794 -8.52017,3.92478 -8.52017,4.28186 0,0.60831 133.36687,130.05581 146.84306,142.52766 l 6.19505,5.73335 -19.68825,19.773 c -10.82855,10.87516 -20.00504,19.77301 -20.39222,19.77301 -0.38718,0 -149.37642,-147.09419 -331.08721,-326.87599 z m 160.86942,68.88047 c 10.17749,-13.86105 18.07185,-32.25429 21.85519,-50.92083 6.40869,-31.61973 8.49434,-76.94872 4.25587,-92.49621 -10.26666,-37.65996 -44.98504,-64.21373 -103.03196,-78.80222 -23.06362,-5.7964 -34.15735,-7.14149 -58.75808,-7.12426 -22.44425,0.0158 -33.24182,1.17296 -52.51619,5.62851 -10.26749,2.37347 -30.31632,8.92098 -30.31632,9.90064 0,0.38288 6.25032,7.20748 13.88959,15.16578 l 13.8896,14.46963 7.20723,-3.07209 c 13.85375,-5.90518 23.48319,-7.77421 39.76487,-7.71816 20.07294,0.0691 32.38306,3.29505 48.99239,12.83884 9.12855,5.2453 23.09848,19.17236 28.61273,28.52492 10.41502,17.66463 12.21567,32.15126 8.23909,66.28534 -2.39525,20.56035 -2.3806,35.89163 0.0434,45.49612 1.14064,4.51939 2.38186,5.76144 26.49857,26.51651 13.91608,11.97626 25.59965,21.77502 25.96355,21.77502 0.36389,0 2.79859,-2.9104 5.41043,-6.46754 z m 124.56024,-45.14444 c 26.59931,-20.05282 48.36238,-36.85219 48.36238,-37.33194 0,-0.47974 -20.91016,-17.22339 -46.46702,-37.20809 -32.86834,-25.70208 -46.57195,-35.86534 -46.82557,-34.7281 -0.1972,0.88426 0.40265,16.64751 1.33301,35.02945 l 1.69154,33.4217 -3.08034,34.85026 c -1.69419,19.16765 -3.32219,36.5549 -3.61778,38.63834 -0.29559,2.08344 -0.3622,3.78807 -0.14802,3.78807 0.21418,0 22.1525,-16.40686 48.7518,-36.45969 z"
       id="path884"
       inkscape:connector-curvature="0"
       transform="matrix(0.26458333,0,0,0.26458333,0,87)" />
    <path
       style="opacity:1;fill:#83c9f2;fill-opacity:1;fill-rule:nonzero;stroke:#000000;stroke-width:1.01174331;stroke-miterlimit:4;stroke-dasharray:none;stroke-opacity:1"
       d="m 369.34012,607.00351 c -24.33815,-1.5231 -44.75203,-4.57169 -66.88825,-9.98902 C 230.95461,579.51715 149.88635,532.70851 74.688897,465.50464 57.19399,449.86946 18.976526,410.6089 16.812522,406.04859 7.5123904,386.45003 17.524245,360.7663 41.298926,343.23288 c 3.746977,-2.76334 17.267764,-11.04731 30.046194,-18.40883 34.92543,-20.12017 63.4841,-39.63755 87.81758,-60.0157 7.67122,-6.42429 8.09107,-6.63509 9.7739,-4.90724 0.9671,0.99296 14.68561,18.34089 30.48557,38.55095 l 28.72719,36.74555 -1.41902,4.6707 c -9.2114,30.31938 -9.64507,65.68579 -1.15967,94.57428 17.48615,59.53151 74.80185,96.60421 163.9725,106.05996 17.42826,1.84812 46.30075,1.88281 63.13454,0.0759 6.94479,-0.74547 12.66258,-1.29341 12.70618,-1.21767 0.0436,0.0758 6.06664,10.03351 13.38452,22.12837 7.31789,12.09485 13.30525,22.19728 13.30525,22.44983 0,0.25256 -4.11818,3.22826 -9.1515,6.61265 -8.19871,5.51281 -10.27583,6.40924 -19.95051,8.61021 -28.11489,6.39606 -66.01328,9.57008 -93.63153,7.84172 z M 175.47827,450.85757 c -0.33339,-5.13916 -1.55643,-34.79976 -2.71786,-65.91246 -1.16144,-31.1127 -2.28324,-56.7464 -2.49291,-56.96378 -0.20966,-0.21739 -2.53886,1.3736 -5.17599,3.53553 -2.63714,2.16193 -21.39964,17.48999 -41.69445,34.06236 -20.29481,16.57237 -36.899652,30.56013 -36.899652,31.0839 0,1.06072 87.171682,63.53836 88.651632,63.53836 0.55005,0 0.68568,-3.84937 0.32923,-9.34391 z"
       id="path886"
       inkscape:connector-curvature="0"
       transform="matrix(0.26458333,0,0,0.26458333,0,87)" />
  </g>
</svg>
