<?xml version="1.0" encoding="UTF-8" standalone="no"?>
<!-- Created with Inkscape (http://www.inkscape.org/) -->

<svg
   xmlns:dc="http://purl.org/dc/elements/1.1/"
   xmlns:cc="http://creativecommons.org/ns#"
   xmlns:rdf="http://www.w3.org/1999/02/22-rdf-syntax-ns#"
   xmlns:svg="http://www.w3.org/2000/svg"
   xmlns="http://www.w3.org/2000/svg"
   xmlns:sodipodi="http://sodipodi.sourceforge.net/DTD/sodipodi-0.dtd"
   xmlns:inkscape="http://www.inkscape.org/namespaces/inkscape"
   width="210mm"
   height="210mm"
   viewBox="0 0 210 210"
   version="1.1"
   id="svg8"
   inkscape:version="0.92.5 (2060ec1f9f, 2020-04-08)"
   sodipodi:docname="pointToPoint.svg">
  <defs
     id="defs2">
    <inkscape:path-effect
       effect="spiro"
       id="path-effect861"
       is_visible="true" />
    <inkscape:path-effect
       effect="spiro"
       id="path-effect857"
       is_visible="true" />
  </defs>
  <sodipodi:namedview
     id="base"
     pagecolor="#ffffff"
     bordercolor="#666666"
     borderopacity="1.0"
     inkscape:pageopacity="0.0"
     inkscape:pageshadow="2"
     inkscape:zoom="0.49497475"
     inkscape:cx="-66.759233"
     inkscape:cy="715.25006"
     inkscape:document-units="mm"
     inkscape:current-layer="layer1"
     showgrid="false"
     inkscape:window-width="1848"
     inkscape:window-height="1136"
     inkscape:window-x="72"
     inkscape:window-y="27"
     inkscape:window-maximized="1" />
  <metadata
     id="metadata5">
    <rdf:RDF>
      <cc:Work
         rdf:about="">
        <dc:format>image/svg+xml</dc:format>
        <dc:type
           rdf:resource="http://purl.org/dc/dcmitype/StillImage" />
        <dc:title></dc:title>
      </cc:Work>
    </rdf:RDF>
  </metadata>
  <g
     inkscape:label="Layer 1"
     inkscape:groupmode="layer"
     id="layer1"
     transform="translate(0,-87)">
    <ellipse
       style="opacity:1;fill:none;fill-opacity:1;fill-rule:nonzero;stroke:#000000;stroke-width:0.27598411;stroke-miterlimit:4;stroke-dasharray:none;stroke-opacity:1"
       id="path826"
       cx="57.720936"
       cy="191.83847"
       rx="12.823447"
       ry="13.6259"
       transform="matrix(1,0,-0.00970404,0.99995291,0,0)" />
    <ellipse
       style="opacity:1;fill:none;fill-opacity:1;fill-rule:nonzero;stroke:#000000;stroke-width:0.55318272;stroke-miterlimit:4;stroke-dasharray:none;stroke-opacity:1"
       id="path826-3"
       cx="57.346363"
       cy="191.83733"
       rx="25.81881"
       ry="27.189606"
       transform="matrix(1,0,-0.00979143,0.99995206,0,0)" />
    <ellipse
       style="opacity:1;fill:none;fill-opacity:1;fill-rule:nonzero;stroke:#000000;stroke-width:0.19380955;stroke-miterlimit:4;stroke-dasharray:none;stroke-opacity:1"
       id="path826-6"
       cx="172.76811"
       cy="131.66434"
       rx="8.9274387"
       ry="9.6521778"
       transform="matrix(1,0,-0.00953707,0.99995452,0,0)" />
    <ellipse
       style="opacity:1;fill:none;fill-opacity:1;fill-rule:nonzero;stroke:#000000;stroke-width:0.38607082;stroke-miterlimit:4;stroke-dasharray:none;stroke-opacity:1"
       id="path826-7"
       cx="172.8156"
       cy="131.83316"
       rx="17.578995"
       ry="19.450993"
       transform="matrix(1,0,-0.00931891,0.99995658,0,0)" />
    <path
       style="fill:none;stroke:#000000;stroke-width:0.26458332px;stroke-linecap:butt;stroke-linejoin:miter;stroke-opacity:1"
       d="M 55.37351,296.62202 C 41.382925,277.6541 28.562368,257.82329 17.008928,237.27976 9.3894628,223.73135 2.1925685,209.46024 0.56696427,194.00149 -0.23011119,186.42167 0.35108573,178.69957 2.2678571,171.32292 6.1865672,156.24185 16.030143,142.56838 29.671131,135.03721 c 11.257871,-6.21545 24.803077,-8.08391 37.374076,-5.3744 12.571,2.70952 24.081882,9.93165 32.173542,19.92648 8.420901,10.4015 13.126331,23.86367 12.473211,37.23065 -0.25322,5.18243 -1.28268,10.30169 -2.64583,15.30804 -2.85625,10.48992 -7.19649,20.5746 -12.85119,29.86012"
       id="path855"
       inkscape:connector-curvature="0"
       inkscape:path-effect="#path-effect857"
       inkscape:original-d="M 55.37351,296.62202 C 42.585581,276.84101 29.797388,257.06025 17.008928,237.27976 4.2204695,217.49927 6.0478836,208.42732 0.56696427,194.00149 -4.9139551,179.57566 1.7011574,178.88218 2.2678571,171.32292 2.8345569,163.76366 20.536971,147.13218 29.671131,135.03721 c 9.13416,-12.09498 46.365342,9.70112 69.547618,14.55208 23.182271,4.85096 8.315741,24.82017 12.473211,37.23065 4.15748,12.41049 -1.76362,10.2051 -2.64583,15.30804 -0.88221,5.10294 -8.56719,19.90648 -12.85119,29.86012" />
    <path
       style="fill:none;stroke:#000000;stroke-width:0.26458332px;stroke-linecap:butt;stroke-linejoin:miter;stroke-opacity:1"
       d="m 198.24851,163.57441 c 3.86056,-6.93353 7.09096,-14.21776 9.63839,-21.73363 1.08589,-3.20377 2.05207,-6.46889 2.45685,-9.82738 0.48579,-4.03061 0.15067,-8.13799 -0.75595,-12.09524 -2.26296,-9.87744 -8.14036,-18.8187 -16.06399,-25.135417 -3.97306,-3.167323 -8.49872,-5.721243 -13.41816,-6.99256 -7.37131,-1.904946 -15.3378,-0.811857 -22.30059,2.267857 -8.30277,3.672403 -15.32608,10.16257 -19.65476,18.14286 -3.49917,6.45103 -5.24466,13.82909 -5.10268,21.16666 0.11582,5.98546 1.47593,11.94403 3.96875,17.38691"
       id="path859"
       inkscape:connector-curvature="0"
       inkscape:path-effect="#path-effect861"
       inkscape:original-d="m 198.24851,163.57441 c 3.15007,-7.24481 6.42586,-14.48935 9.63839,-21.73363 3.21253,-7.24428 1.63816,-6.55185 2.45685,-9.82738 0.81868,-3.27553 -0.50371,-8.06376 -0.75595,-12.09524 -0.25225,-4.03148 -10.70906,-16.75721 -16.06399,-25.135417 -5.35493,-8.378208 -8.94517,-4.661971 -13.41816,-6.99256 -4.47298,-2.330588 -14.8668,1.51164 -22.30059,2.267857 -7.4338,0.756217 -13.10291,12.09497 -19.65476,18.14286 -6.55186,6.04788 -3.40153,14.11084 -5.10268,21.16666 -1.70116,7.05582 2.64609,11.59101 3.96875,17.38691" />
    <path
       style="fill:none;stroke:#000000;stroke-width:0.26458332px;stroke-linecap:butt;stroke-linejoin:miter;stroke-opacity:1"
       d="m 198.24851,163.57441 -13.51265,23.24553 -13.13467,18.89881 -11.71726,-15.96949 -13.51265,-23.43453 -9.35491,-19.56026"
       id="path863"
       inkscape:connector-curvature="0" />
    <path
       style="fill:none;stroke:#000000;stroke-width:0.26458332px;stroke-linecap:butt;stroke-linejoin:miter;stroke-opacity:1"
       d="m 55.37351,296.62202 v 0 l 2.834823,-0.94493 29.009673,-22.11161 -4.630209,-7.84301 -9.543899,7.55953 14.646577,-24.28497 8.504465,-17.00893"
       id="path865"
       inkscape:connector-curvature="0" />
    <path
       style="fill:none;stroke:#000000;stroke-width:0.26458332px;stroke-linecap:butt;stroke-linejoin:miter;stroke-opacity:1"
       d="m 112.16443,242.47694 4.63021,7.65402 -26.269343,20.78869 -4.724704,-7.84301 z"
       id="path867"
       inkscape:connector-curvature="0" />
    <path
       style="fill:none;stroke:#000000;stroke-width:0.26458332px;stroke-linecap:butt;stroke-linejoin:miter;stroke-opacity:1"
       d="m 142.02455,219.3259 4.8192,7.9375 -26.55283,20.5052 -4.7247,-7.843 z"
       id="path869"
       inkscape:connector-curvature="0" />
    <path
       style="fill:#83c9f2;stroke:#000000;stroke-width:0.26458332px;stroke-linecap:butt;stroke-linejoin:miter;stroke-opacity:1;fill-opacity:1"
       d="m 164.79762,201.8445 4.91369,7.65402 -19.18229,15.02455 -5.10268,-7.74851 z"
       id="path871"
       inkscape:connector-curvature="0" />
    <path
       style="opacity:1;fill:#83c9f2;fill-opacity:1;fill-rule:nonzero;stroke:#000000;stroke-width:0.71541053;stroke-miterlimit:4;stroke-dasharray:none;stroke-opacity:1"
       d="m 199.69071,445.39143 c -13.03409,-3.53439 -24.28031,-12.73623 -30.32365,-24.81131 -4.52484,-9.04098 -5.79755,-15.22261 -5.38859,-26.17272 0.26151,-7.00177 0.70288,-9.80502 2.26846,-14.40749 4.46751,-13.13347 13.31296,-23.54182 24.8807,-29.27682 13.88828,-6.88548 28.14117,-6.81015 41.62342,0.21999 5.97414,3.11514 15.25128,12.04834 18.80056,18.10355 14.50254,24.74192 5.9776,57.69961 -18.58208,71.8389 -9.41831,5.42223 -23.07868,7.27183 -33.27882,4.5059 z"
       id="path873"
       inkscape:connector-curvature="0"
       transform="matrix(0.26458333,0,0,0.26458333,0,87)" />
    <path
       style="opacity:1;fill:#83c9f2;fill-opacity:1;fill-rule:nonzero;stroke:#000000;stroke-width:0.71541053;stroke-miterlimit:4;stroke-dasharray:none;stroke-opacity:1"
       d="M 204.66905,784.4642 C 150.06452,710.52398 83.582783,604.92841 46.260136,532.85706 7.359123,457.73782 -4.8999924,400.57139 4.9792654,340.35706 17.079512,266.60573 63.652904,203.49113 126.7715,175.30855 180.6538,151.25 241.90373,151.66759 295.95451,176.462 c 59.56154,27.32233 103.35464,79.67639 119.33595,142.66452 5.16899,20.37286 7.17008,41.41412 5.78464,60.82472 -3.40951,47.76832 -24.09781,109.10786 -54.23857,160.814 -2.76444,4.74237 -12.25339,23.0638 -21.08656,40.71429 -15.25412,30.48089 -17.42444,34.35069 -43.23584,77.09181 -14.94654,24.75 -26.90433,45.27482 -26.57288,45.61072 0.33146,0.33589 8.55949,-5.69255 18.28451,-13.39653 l 17.68185,-14.00725 7.09252,11.96796 c 9.617,16.22776 9.44497,15.87476 8.27947,16.98982 -0.52642,0.50363 -24.86163,19.12375 -54.07825,41.37805 -44.21392,33.67776 -53.89957,40.75538 -57.76362,42.2098 -2.55336,0.96109 -4.92303,1.74743 -5.2659,1.74743 -0.34289,0 -2.81913,-2.97321 -5.50278,-6.60714 z m 21.8156,-285.87018 c 39.5251,-7.68735 71.44727,-40.25672 79.83224,-81.4508 7.72484,-37.95093 -5.47916,-77.99821 -33.55092,-101.75881 -18.24219,-15.44062 -38.80372,-23.07311 -62.15778,-23.07311 -25.16411,0 -48.18584,9.28732 -66.55676,26.85003 -15.74272,15.05014 -26.17456,33.70756 -31.06883,55.5668 -1.44922,6.47269 -1.66012,9.32023 -1.66012,22.41464 0,13.09442 0.2109,15.94195 1.66012,22.41464 9.67842,43.2267 42.08024,74.3092 83.43614,80.03885 6.69921,0.92814 22.92102,0.38739 30.06591,-1.00224 z"
       id="path875"
       inkscape:connector-curvature="0"
       transform="matrix(0.26458333,0,0,0.26458333,0,87)" />
    <path
       style="opacity:1;fill:#83c9f2;fill-opacity:1;fill-rule:nonzero;stroke:#000000;stroke-width:0.71541053;stroke-miterlimit:4;stroke-dasharray:none;stroke-opacity:1"
       d="m 333.86265,679.72299 c -4.49576,-7.41603 -8.19219,-13.63528 -8.21428,-13.82058 -0.0221,-0.1853 20.85268,-16.65837 46.38839,-36.60682 25.53572,-19.94845 47.6034,-37.1946 49.0393,-38.32479 l 2.61073,-2.05489 8.30679,13.69591 c 4.56874,7.53275 8.05462,13.92528 7.74642,14.20563 -2.81664,2.56204 -96.68748,76.39583 -97.12455,76.39298 -0.31828,-0.002 -4.25704,-6.07142 -8.7528,-13.48744 z"
       id="path877"
       inkscape:connector-curvature="0"
       transform="matrix(0.26458333,0,0,0.26458333,0,87)" />
    <path
       style="opacity:1;fill:#83c9f2;fill-opacity:1;fill-rule:nonzero;stroke:#000000;stroke-width:0.71541053;stroke-miterlimit:4;stroke-dasharray:none;stroke-opacity:1"
       d="m 446.32538,592.13253 c -4.63914,-7.66635 -8.30548,-14.04779 -8.14742,-14.18098 0.15805,-0.13319 22.27631,-17.34244 49.15169,-38.24279 39.45314,-30.68178 49.03193,-37.8212 49.73461,-37.06902 2.04774,2.192 16.74405,27.29717 16.24067,27.74334 -1.51814,1.34557 -98.04931,75.68826 -98.27834,75.68826 -0.14653,0 -4.06208,-6.27246 -8.70121,-13.93881 z"
       id="path879"
       inkscape:connector-curvature="0"
       transform="matrix(0.26458333,0,0,0.26458333,0,87)" />
    <path
       style="opacity:1;fill:#83c9f2;fill-opacity:1;fill-rule:nonzero;stroke:#000000;stroke-width:0.71541053;stroke-miterlimit:4;stroke-dasharray:none;stroke-opacity:1"
       d="m 626.71287,417.45081 -21.65474,-29.52747 -25.37966,-43.96172 c -24.4276,-42.31256 -26.04787,-45.35506 -43.19218,-81.10456 -19.93701,-41.5729 -23.13404,-48.97887 -26.67178,-61.78572 -3.71042,-13.43195 -5.32503,-24.31585 -5.78406,-38.98966 -0.57746,-18.46003 1.17824,-33.06093 6.00497,-49.93891 C 528.98771,45.871005 591.38625,-1.7057234 656.32248,0.60396962 682.26041,1.5265467 703.53643,9.6192077 727.63681,27.729466 c 37.90683,28.485133 63.14077,73.139954 66.92314,118.429424 1.15083,13.77994 -0.2634,27.97767 -4.29587,43.12674 -6.74107,25.32466 -22.90755,64.94536 -37.39004,91.63526 -2.92273,5.38632 -16.56851,29.14404 -30.32396,52.79492 -24.22831,41.65774 -25.73813,44.04993 -48.31168,76.54574 -12.81597,18.44926 -23.8798,34.25795 -24.58628,35.13042 -1.2821,1.58333 -1.32514,1.53091 -22.93925,-27.94116 z m 31.08556,-174.27302 c 21.40714,-3.79168 39.98938,-18.22218 49.93462,-38.778 21.10496,-43.62178 -0.14385,-96.16076 -43.55343,-107.688561 -8.05352,-2.138686 -21.94648,-2.138686 -30,0 -22.94301,6.092721 -41.65423,24.575111 -49.24511,48.642861 -11.33598,35.94202 3.15009,74.85829 34.01367,91.37638 5.39311,2.88638 12.8652,5.43397 18.91697,6.44971 5.10074,0.85611 15.09308,0.85491 19.93328,-0.002 z"
       id="path881"
       inkscape:connector-curvature="0"
       transform="matrix(0.26458333,0,0,0.26458333,0,87)" />
    <path
       style="opacity:1;fill:#83c9f2;fill-opacity:1;fill-rule:nonzero;stroke:#000000;stroke-width:0.71541053;stroke-miterlimit:4;stroke-dasharray:none;stroke-opacity:1"
       d="m 640.32578,203.5124 c -17.77428,-4.77977 -28.47915,-23.98201 -23.98855,-43.03031 4.0027,-16.97867 18.10031,-28.07743 34.46089,-27.13033 7.32425,0.424 13.60623,3.27235 19.39524,8.79413 7.17662,6.84534 10.778,15.5512 10.7635,26.01938 -0.0153,11.0718 -3.27258,19.17096 -10.65367,26.49049 -8.64402,8.57192 -19.31381,11.72425 -29.97741,8.85664 z"
       id="path883"
       inkscape:connector-curvature="0"
       transform="matrix(0.26458333,0,0,0.26458333,0,87)" />
  </g>
</svg>
