<?xml version="1.0" encoding="UTF-8" standalone="no"?>
<!-- Created with Inkscape (http://www.inkscape.org/) -->

<svg
   xmlns:dc="http://purl.org/dc/elements/1.1/"
   xmlns:cc="http://creativecommons.org/ns#"
   xmlns:rdf="http://www.w3.org/1999/02/22-rdf-syntax-ns#"
   xmlns:svg="http://www.w3.org/2000/svg"
   xmlns="http://www.w3.org/2000/svg"
   xmlns:sodipodi="http://sodipodi.sourceforge.net/DTD/sodipodi-0.dtd"
   xmlns:inkscape="http://www.inkscape.org/namespaces/inkscape"
   width="350mm"
   height="450mm"
   viewBox="0 0 350 450"
   version="1.1"
   id="svg8"
   inkscape:version="0.92.5 (2060ec1f9f, 2020-04-08)"
   sodipodi:docname="rocket2.svg">
  <defs
     id="defs2" />
  <sodipodi:namedview
     id="base"
     pagecolor="#ffffff"
     bordercolor="#666666"
     borderopacity="1.0"
     inkscape:pageopacity="0.0"
     inkscape:pageshadow="2"
     inkscape:zoom="0.35"
     inkscape:cx="-95.185647"
     inkscape:cy="760.08718"
     inkscape:document-units="mm"
     inkscape:current-layer="layer1"
     showgrid="false"
     inkscape:showpageshadow="false"
     inkscape:window-width="1848"
     inkscape:window-height="1136"
     inkscape:window-x="72"
     inkscape:window-y="27"
     inkscape:window-maximized="1" />
  <metadata
     id="metadata5">
    <rdf:RDF>
      <cc:Work
         rdf:about="">
        <dc:format>image/svg+xml</dc:format>
        <dc:type
           rdf:resource="http://purl.org/dc/dcmitype/StillImage" />
        <dc:title></dc:title>
      </cc:Work>
    </rdf:RDF>
  </metadata>
  <g
     inkscape:label="Layer 1"
     inkscape:groupmode="layer"
     id="layer1"
     transform="translate(0,153)">
    <path
       style="fill:none;stroke:#000000;stroke-width:0.26458332px;stroke-linecap:butt;stroke-linejoin:miter;stroke-opacity:1"
       d="m 192.9686,63.940955 -97.553379,169.181615 1.336346,2.67269 14.699823,9.08716 4.27631,-0.80182 98.08792,-168.112515 -0.80181,-4.009043 -16.30344,-9.621702 z"
       id="path3732"
       inkscape:connector-curvature="0" />
    <path
       style="fill:none;stroke:#000000;stroke-width:0.26458332px;stroke-linecap:butt;stroke-linejoin:miter;stroke-opacity:1"
       d="M 136.04019,29.997727 115.7277,33.204961 96.751567,38.81762 78.309972,48.706594 62.273798,61.802799 48.643053,77.571701 38.219541,95.21149 l -10.423512,20.31249 -5.879928,18.17431 -3.741773,19.51069 -2.939965,22.98518 -1.069078,10.95806 v 1.33633 l 2.672695,1.60361 2.939965,0.53454 13.363477,-10.4235 69.859228,-51.64521 5.77805,-22.92299 6.949,-23.519715 8.28536,-22.18337 5.34539,-14.699824 z"
       id="path3734"
       inkscape:connector-curvature="0" />
    <path
       style="fill:none;stroke:#000000;stroke-width:0.26458332px;stroke-linecap:butt;stroke-linejoin:miter;stroke-opacity:1"
       d="m 268.07133,107.50589 5.07812,10.15624 4.81084,14.96708 2.40544,22.18338 -1.87087,24.05425 -4.54359,18.44162 -7.75083,16.30344 -11.75985,20.57974 -12.56167,15.23437 -14.43255,14.43254 -15.23437,11.22532 -11.75986,8.81991 -6.68173,5.34538 -4.27632,1.60361 -2.13815,-1.87087 -1.06908,-2.40543 12.56167,-102.36422 17.63978,-16.83798 15.50164,-16.03618 15.23436,-17.90706 z"
       id="path3736"
       inkscape:connector-curvature="0" />
    <path
       style="fill:none;stroke:#000000;stroke-width:0.26458332px;stroke-linecap:butt;stroke-linejoin:miter;stroke-opacity:1"
       d="m 246.68977,-110.0515 12.82894,7.48354 18.70886,11.492593 13.63076,8.285356 21.64881,12.027127 20.84703,12.294399 1.60361,-27.796032 -2.40541,-34.210493 -4.54358,-19.24341 -4.81087,-4.81085 -5.34537,-1.33635 -13.36347,4.27631 -19.24341,8.01809 -14.96711,8.55262 z"
       id="path3738"
       inkscape:connector-curvature="0" />
    <path
       style="fill:none;stroke:#000000;stroke-width:0.26458332px;stroke-linecap:butt;stroke-linejoin:miter;stroke-opacity:1"
       d="m 246.68977,-110.0515 -24.05426,20.045211 -16.03617,14.165284 -16.83798,19.510676 -22.18337,29.399648 -16.03617,26.45968197 -15.50163,30.46872303"
       id="path3740"
       inkscape:connector-curvature="0" />
    <path
       style="fill:none;stroke:#000000;stroke-width:0.26458332px;stroke-linecap:butt;stroke-linejoin:miter;stroke-opacity:1"
       d="m 334.35417,-58.468485 -3.74177,25.390604 -8.01809,30.7359947 -14.69983,39.0213503 -15.23436,31.003266 -16.30344,26.459682 -8.28535,13.363478"
       id="path3742"
       inkscape:connector-curvature="0" />
    <path
       style="opacity:1;fill:#83c9f2;fill-opacity:1;fill-rule:nonzero;stroke:#000000;stroke-width:2.86164212;stroke-miterlimit:4;stroke-dasharray:none;stroke-opacity:1"
       d="m 685.26904,1234.3289 c -36.73835,-21.146 -67.1656,-38.8158 -67.61612,-39.2663 -0.45052,-0.4505 8.81932,-17.0407 20.59964,-36.8671 l 21.41877,-36.0479 46.42865,26.05 c 25.53576,14.3275 60.82188,34.5543 78.4136,44.9484 l 31.98493,18.8985 -32.21624,30.3657 -32.21625,30.3658 z"
       id="path958"
       inkscape:connector-curvature="0"
       transform="matrix(0.26458333,0,0,0.26458333,0,-153)" />
    <path
       style="opacity:1;fill:#83c9f2;fill-opacity:1;fill-rule:nonzero;stroke:#000000;stroke-width:2.86164212;stroke-miterlimit:4;stroke-dasharray:none;stroke-opacity:1"
       d="m 464.18745,1105.9991 c -39.15908,-22.723 -71.67221,-41.7885 -72.25139,-42.3676 -0.57918,-0.5792 3.65596,-19.8641 9.41141,-42.8554 l 10.46446,-41.80225 16.07264,9.15437 c 35.73976,20.35608 147.27526,85.39368 148.43681,86.55518 1.35675,1.3568 -29.2157,57.3696 -36.46566,66.8099 -4.38007,5.7035 -5.90143,4.9898 -75.66827,-35.4942 z"
       id="path962"
       inkscape:connector-curvature="0"
       transform="matrix(0.26458333,0,0,0.26458333,0,-153)" />
    <path
       style="opacity:1;fill:#83c9f2;fill-opacity:1;fill-rule:nonzero;stroke:#000000;stroke-width:2.86164212;stroke-miterlimit:4;stroke-dasharray:none;stroke-opacity:1"
       d="m 809.52864,1205.0218 c -1.49286,-1.3946 -34.85714,-20.8577 -74.14286,-43.2513 -39.28571,-22.3937 -71.83498,-41.0519 -72.33171,-41.4628 -0.49673,-0.4109 32.3788,-57.7692 73.05674,-127.46299 64.03091,-109.70455 73.72837,-127.85297 72.23534,-135.18583 -1.44168,-7.0808 -6.62894,-11.41409 -31.62817,-26.42132 -16.447,-9.87325 -32.08194,-17.95465 -34.74431,-17.95865 -2.66237,-0.003 -8.01346,2.8856 -11.89132,6.42131 -3.87785,3.53572 -38.78978,61.71429 -77.58204,129.28572 -38.79226,67.57146 -70.89457,123.23916 -71.33848,123.70596 -0.44391,0.4669 -37.28207,-20.4259 -81.86259,-46.4284 -44.58052,-26.0025 -82.18835,-47.65491 -83.57294,-48.11645 -6.6284,-2.20946 57.11163,-187.84694 90.72376,-264.22531 20.16062,-45.81192 68.53203,-137.39323 99.943,-189.22152 31.35332,-51.73317 96.63112,-139.92313 144.49926,-195.21775 33.66495,-38.88785 57.13912,-60.79573 131.73338,-122.94353 l 49.65882,-41.37296 8.69349,4.48436 c 4.78143,2.4664 42.76491,25.26562 84.40779,50.66493 41.6428,25.39931 95,56.88307 118.5714,69.96391 36.2241,20.10234 88.911,50.56428 111.74,64.60463 l 6.0258,3.70594 -6.897,46.62667 c -10.3715,70.11689 -31.0512,145.69294 -64.3568,235.19809 -36.4044,97.83283 -70.5423,166.91925 -131.7637,266.65643 -36.7529,59.87511 -55.1553,86.40591 -90.17063,129.99996 -57.1016,71.0914 -89.15589,108.3089 -122.84226,142.6293 -27.06557,27.5751 -30.88723,30.2509 -36.16397,25.3216 z"
       id="path966"
       inkscape:connector-curvature="0"
       transform="matrix(0.26458333,0,0,0.26458333,0,-153)" />
    <path
       style="opacity:1;fill:#83c9f2;fill-opacity:1;fill-rule:nonzero;stroke:#000000;stroke-width:2.86164212;stroke-miterlimit:4;stroke-dasharray:none;stroke-opacity:1"
       d="m 394.24489,1484.9559 c -14.77035,-9.227 -27.91916,-18.6776 -29.21959,-21.0013 -1.6677,-2.98 49.04028,-93.3647 172.08841,-306.7397 95.94905,-166.38306 178.94507,-309.91433 184.43561,-318.95834 15.49966,-25.53099 16.40709,-25.60572 51.92758,-4.27662 28.66734,17.21397 30.45654,18.83008 30.08057,27.17049 -0.27572,6.11552 -57.26735,106.3761 -183.62282,323.03187 -178.35743,305.8211 -185.74167,317.7001 -197.40601,317.5664 -0.78572,-0.01 -13.5134,-7.5658 -28.28375,-16.7928 z"
       id="path968"
       inkscape:connector-curvature="0"
       transform="matrix(0.26458333,0,0,0.26458333,0,-153)" />
    <path
       style="opacity:1;fill:#83c9f2;fill-opacity:1;fill-rule:nonzero;stroke:#000000;stroke-width:2.86164212;stroke-miterlimit:4;stroke-dasharray:none;stroke-opacity:1"
       d="m 1233.9331,337.36039 c -14.9153,-8.83088 -50.2616,-29.03323 -78.5473,-44.89411 -28.2857,-15.86089 -71.3572,-41.04317 -95.7143,-55.96063 -24.3571,-14.91745 -61.94507,-37.68385 -83.52872,-50.592 -37.91381,-22.67443 -39.0267,-23.61088 -32.85714,-27.64794 13.91671,-9.10642 87.92976,-53.59046 113.52876,-68.23416 30.5119,-17.454126 93.1166,-44.184413 126.2258,-53.894557 26.6611,-7.819078 37.8463,-6.381267 50.1774,6.450096 7.5591,7.865817 10.1764,14.834538 17.4262,46.398847 12.1617,52.950254 18.618,147.262924 14.5713,212.857144 -1.5995,25.92857 -3.1907,48.13974 -3.5358,49.35814 -0.3451,1.2184 -12.8309,-5.00997 -27.7462,-13.84083 z"
       id="path970"
       inkscape:connector-curvature="0"
       transform="matrix(0.26458333,0,0,0.26458333,0,-153)" />
    <path
       style="opacity:1;fill:#83c9f2;fill-opacity:1;fill-rule:nonzero;stroke:#000000;stroke-width:2.86164212;stroke-miterlimit:4;stroke-dasharray:none;stroke-opacity:1"
       d="m 713.72753,1672.2886 c -2.42558,-1.8165 -5.14608,-5.2703 -6.04555,-7.6753 -0.89946,-2.405 8.93449,-90.503 21.85323,-195.7734 l 23.48862,-191.4008 62.87315,-62.798 c 62.4442,-62.3696 88.61471,-91.8655 159.99518,-180.3253 l 37.19824,-46.0987 7.9537,16.0987 c 28.1723,57.0225 39.0264,123.5068 33.1807,203.2416 -6.0422,82.4149 -20.6488,126.2386 -72.302,216.925 -39.63573,69.5875 -96.62232,129.3947 -189.39416,198.7684 -68.63927,51.3277 -72.51917,53.7421 -78.80111,49.0378 z"
       id="path972"
       inkscape:connector-curvature="0"
       transform="matrix(0.26458333,0,0,0.26458333,0,-153)" />
    <path
       style="opacity:1;fill:#83c9f2;fill-opacity:1;fill-rule:nonzero;stroke:#000000;stroke-width:2.86164212;stroke-miterlimit:4;stroke-dasharray:none;stroke-opacity:1"
       d="m 60.69756,1292.7808 c -4.968146,-2.4052 -5.902824,-4.9174 -4.977358,-13.3781 21.563588,-197.1357 37.029411,-249.8951 108.753048,-370.99522 55.97631,-94.5119 142.36088,-164.17103 238.86896,-192.6201 36.35274,-10.71622 100.36931,-22.28521 103.88126,-18.77328 1.01331,1.01332 -2.36037,11.19295 -7.49709,22.6214 -31.18326,69.37833 -79.90494,214.75696 -102.71706,306.4933 l -9.23634,37.1429 -125.95336,92.8571 c -69.27436,51.0714 -139.56148,103.4385 -156.1936,116.3714 -16.632133,12.9328 -32.16881,23.4529 -34.525953,23.378 -2.357143,-0.075 -7.038271,-1.4687 -10.402507,-3.0974 z"
       id="path974"
       inkscape:connector-curvature="0"
       transform="matrix(0.26458333,0,0,0.26458333,0,-153)" />
  </g>
</svg>
