<?xml version="1.0" encoding="UTF-8" standalone="no"?>
<!-- Created with Inkscape (http://www.inkscape.org/) -->

<svg
   xmlns:dc="http://purl.org/dc/elements/1.1/"
   xmlns:cc="http://creativecommons.org/ns#"
   xmlns:rdf="http://www.w3.org/1999/02/22-rdf-syntax-ns#"
   xmlns:svg="http://www.w3.org/2000/svg"
   xmlns="http://www.w3.org/2000/svg"
   xmlns:sodipodi="http://sodipodi.sourceforge.net/DTD/sodipodi-0.dtd"
   xmlns:inkscape="http://www.inkscape.org/namespaces/inkscape"
   width="210mm"
   height="210mm"
   viewBox="0 0 210 210"
   version="1.1"
   id="svg8"
   inkscape:version="0.92.5 (2060ec1f9f, 2020-04-08)"
   sodipodi:docname="showAll.svg">
  <defs
     id="defs2">
    <inkscape:path-effect
       effect="spiro"
       id="path-effect866"
       is_visible="true" />
    <inkscape:path-effect
       effect="spiro"
       id="path-effect862"
       is_visible="true" />
    <inkscape:path-effect
       effect="spiro"
       id="path-effect854"
       is_visible="true" />
    <inkscape:path-effect
       is_visible="true"
       id="path-effect838"
       effect="spiro" />
  </defs>
  <sodipodi:namedview
     id="base"
     pagecolor="#ffffff"
     bordercolor="#666666"
     borderopacity="1.0"
     inkscape:pageopacity="0.0"
     inkscape:pageshadow="2"
     inkscape:zoom="0.98994949"
     inkscape:cx="291.57426"
     inkscape:cy="395.09704"
     inkscape:document-units="mm"
     inkscape:current-layer="layer1"
     showgrid="false"
     inkscape:window-width="1848"
     inkscape:window-height="1136"
     inkscape:window-x="72"
     inkscape:window-y="27"
     inkscape:window-maximized="1" />
  <metadata
     id="metadata5">
    <rdf:RDF>
      <cc:Work
         rdf:about="">
        <dc:format>image/svg+xml</dc:format>
        <dc:type
           rdf:resource="http://purl.org/dc/dcmitype/StillImage" />
        <dc:title></dc:title>
      </cc:Work>
    </rdf:RDF>
  </metadata>
  <g
     inkscape:label="Layer 1"
     inkscape:groupmode="layer"
     id="layer1"
     transform="translate(0,-87)">
    <ellipse
       style="opacity:1;fill:#83c9f2;fill-opacity:1;fill-rule:nonzero;stroke:#000000;stroke-width:0.26499999;stroke-miterlimit:4;stroke-dasharray:none;stroke-opacity:1"
       id="path850"
       cx="105.43783"
       cy="193.5667"
       rx="20.446119"
       ry="21.114292" />
    <path
       style="fill:none;stroke:#000000;stroke-width:0.26458332px;stroke-linecap:butt;stroke-linejoin:miter;stroke-opacity:1"
       d="m 62.54107,198.64481 c -2.098864,-7.96414 -2.579287,-16.59301 0.267269,-24.32152 1.897426,-5.15159 5.25771,-9.76535 9.621702,-13.09621 6.579835,-5.02213 15.015533,-6.93275 23.25245,-7.75081 9.279859,-0.92164 18.737969,-0.61377 27.796029,1.60361 4.31104,1.05533 8.54346,2.5515 12.36406,4.81022 3.8206,2.25871 7.22573,5.30798 9.55204,9.0878 2.23605,3.63317 3.41987,7.84012 3.92503,12.07624 0.50515,4.23612 0.35582,8.52236 0.084,12.77982 -0.43876,6.8725 -1.29667,14.02258 -5.07812,19.77795 -2.03561,3.0982 -4.84004,5.64323 -7.94168,7.67359 -3.10164,2.03036 -6.50252,3.56479 -9.96538,4.88808 -9.51867,3.63743 -19.84966,5.73869 -29.934181,4.27631 -9.261455,-1.34303 -18.134951,-5.80722 -24.321527,-12.82894 -4.731004,-5.36965 -7.797951,-12.05591 -9.621702,-18.97614 z"
       id="path852"
       inkscape:connector-curvature="0"
       inkscape:path-effect="#path-effect854"
       inkscape:original-d="m 62.54107,198.64481 c -2.851139,-7.92873 0.534802,-17.81822 0.267269,-24.32152 -0.267534,-6.50329 6.058373,-9.08743 9.621702,-13.09621 3.563329,-4.00878 15.680077,-5.43474 23.25245,-7.75081 7.572369,-2.31608 18.709129,1.69244 27.796029,1.60361 9.0869,-0.0888 14.611,9.26508 21.9161,13.89802 7.3051,4.63294 2.67296,16.57044 4.00904,24.85606 1.33609,8.28563 -3.38514,13.18504 -5.07812,19.77795 -1.69297,6.59291 -11.93777,8.37418 -17.90706,12.56167 -5.96928,4.18748 -19.95586,2.85061 -29.934181,4.27631 -9.978327,1.4257 -16.214088,-8.55289 -24.321527,-12.82894 -8.107441,-4.27604 -6.770563,-11.0474 -9.621702,-18.97614 z"
       sodipodi:nodetypes="sssccsscsscs" />
    <path
       style="fill:none;stroke:#000000;stroke-width:0.26458332px;stroke-linecap:butt;stroke-linejoin:miter;stroke-opacity:1"
       d="m 48.108515,175.39237 0.534538,35.81412 -25.123335,-19.51068 z"
       id="path856"
       inkscape:connector-curvature="0" />
    <path
       style="fill:none;stroke:#000000;stroke-width:0.26458332px;stroke-linecap:butt;stroke-linejoin:miter;stroke-opacity:1"
       d="m 164.63803,175.1251 -1.60362,37.15046 25.65787,-19.77794 z"
       id="path858"
       inkscape:connector-curvature="0" />
    <path
       style="fill:none;stroke:#000000;stroke-width:0.26458332px;stroke-linecap:butt;stroke-linejoin:miter;stroke-opacity:1"
       d="m 5.61266,190.894 c 9.174518,-12.27143 20.430416,-22.98268 33.141421,-31.5378 13.875553,-9.33891 29.539668,-16.11632 45.970359,-19.24341 18.67789,-3.55478 38.20551,-2.33204 56.39387,3.20724 26.4097,8.0431 49.91198,25.31007 65.48103,48.10851"
       id="path860"
       inkscape:connector-curvature="0"
       inkscape:path-effect="#path-effect862"
       inkscape:original-d="m 5.61266,190.894 c 10.512866,-9.17652 22.629084,-22.36181 33.141421,-31.5378 10.512338,-9.17599 30.647169,-12.82921 45.970359,-19.24341 15.32319,-6.4142 37.59618,2.13789 56.39387,3.20724 18.79769,1.06934 43.65429,32.07207 65.48103,48.10851"
       sodipodi:nodetypes="csssc" />
    <path
       style="fill:none;stroke:#000000;stroke-width:0.26458332px;stroke-linecap:butt;stroke-linejoin:miter;stroke-opacity:1"
       d="m 5.6126599,190.894 c 5.0728211,7.26878 10.8057781,14.07667 17.1052491,20.31249 13.89443,13.75403 30.743075,24.77033 49.444863,30.46872 28.266128,8.61263 59.676068,4.48416 86.060788,-8.81989 19.1414,-9.65173 35.89422,-23.99807 48.37578,-41.42678"
       id="path864"
       inkscape:connector-curvature="0"
       inkscape:path-effect="#path-effect866"
       inkscape:original-d="m 5.6126599,190.894 c 5.7020141,6.77056 11.4037641,13.54139 17.1052491,20.31249 5.701487,6.77109 32.963507,20.31221 49.444863,30.46872 16.481356,10.15651 57.374118,-5.88019 86.060788,-8.81989 28.68666,-2.9397 32.25078,-27.61812 48.37578,-41.42678" />
    <path
       style="opacity:1;fill:#83c9f2;fill-opacity:1;fill-rule:nonzero;stroke:#000000;stroke-width:1.01174331;stroke-miterlimit:4;stroke-dasharray:none;stroke-opacity:1"
       d="M 366.02251,599.95985 C 278.9292,595.18182 195.85235,561.37864 122.0853,500.7041 97.615545,480.57733 71.867151,454.81599 49.719855,428.30223 39.434158,415.98865 23.075717,394.12988 23.075717,392.69932 c 0,-2.80893 29.387191,-37.08208 46.657204,-54.41449 55.138309,-55.33754 121.916389,-97.31427 192.748949,-121.16207 31.17389,-10.49558 61.07095,-17.03076 95.15655,-20.80021 18.96789,-2.09762 64.01254,-2.38197 83.13537,-0.5248 107.38034,10.42852 203.57605,55.05581 280.13895,129.96256 22.95688,22.4603 41.05067,43.46855 55.83344,64.82685 l 2.91129,4.20626 -8.7365,11.45111 c -26.40139,34.60482 -62.3657,70.37395 -96.64836,96.12385 -79.1185,59.42632 -167.87239,92.39892 -262.79324,97.62926 -20.04115,1.1043 -24.70952,1.10043 -45.45686,-0.0378 z m 53.84978,-57.47725 c 24.86949,-3.65885 55.3728,-13.12213 78.4802,-24.34752 31.70276,-15.40094 50.40976,-35.58545 59.38376,-64.07396 6.95459,-22.07778 10.67459,-68.8941 7.68235,-96.68249 -2.50286,-23.24347 -10.81675,-44.46483 -23.15874,-59.11311 -28.12666,-33.38252 -85.47514,-51.67406 -155.02415,-49.44561 -71.6638,2.29622 -114.39047,20.26707 -139.39694,58.63037 -13.88802,21.30611 -19.48965,43.80607 -18.37655,73.81278 1.50042,40.44811 17.18586,82.86318 41.30852,111.7025 21.88671,26.16618 61.30639,46.63835 97.77715,50.77945 11.19342,1.27096 38.70434,0.59428 51.3244,-1.26241 z M 665.20763,437.02414 c 26.56904,-20.48202 48.30735,-37.70598 48.30735,-38.27548 0,-1.14586 -89.8632,-66.41092 -91.44093,-66.41092 -0.54341,0 -0.98803,1.50135 -0.98803,3.33633 0,4.40927 -4.77361,115.4221 -5.54011,128.83801 -0.37423,6.55027 -0.23291,10.32053 0.37864,10.10152 0.53665,-0.19219 22.71405,-17.10745 49.28308,-37.58946 z m -480.89571,-8.46937 c -1.14963,-76.02511 -1.77283,-95.36903 -3.05659,-94.8764 -0.6453,0.24762 -21.98449,14.21123 -47.42042,31.03025 l -46.247148,30.58002 2.341702,2.23706 c 2.987005,2.85353 93.803016,73.20294 94.499706,73.20294 0.28628,0 0.23351,-18.97824 -0.11725,-42.17387 z"
       id="path868"
       inkscape:connector-curvature="0"
       transform="matrix(0.26458333,0,0,0.26458333,0,87)" />
  </g>
</svg>
